<?xml version="1.0" encoding="utf-8"?>
<!-- Generator: Adobe Illustrator 27.5.0, SVG Export Plug-In . SVG Version: 6.00 Build 0)  -->
<svg version="1.1" id="Layer_1" xmlns="http://www.w3.org/2000/svg" xmlns:xlink="http://www.w3.org/1999/xlink" x="0px" y="0px"
	 viewBox="0 0 4000 4000" style="enable-background:new 0 0 4000 4000;" xml:space="preserve">
<g>
	<g>
		<rect style="fill:#FFFFFF;" width="4000" height="4000"/>
	</g>
	<g>
		<g>
			<circle style="fill:#C5C5FF;" cx="2000" cy="1990" r="1323.334"/>
		</g>
		<g>
			<g>
				<g>
					<path style="fill:#FFFFFF;" d="M3159,2226.05c-12.2,27.8-44.65,40.45-72.45,28.2c-9.05-4-16.55-10.1-22-17.5
						c-11.45-15.35-14.5-36.2-6.25-54.95c28.05-63.8,25.3-139.6-4.7-202.9c-8.6-18.15-19.4-35.25-32.4-50.75
						c-26-31.1-82.65-80.1-169.3-59.15c-140.45,33.9-141.9,155.15-75.65,479.55c22.55,110.45,7.7,196.5-44.1,255.85
						c-44.7,51.15-105.45,67.6-145.65,72.75c-23.85,3-40.45,2.05-42.2,1.9c-30.3-2-53.25-28.2-51.25-58.5
						c2-30.2,28-53.05,58.2-51.25c1.95,0.1,64,2.3,98.5-37.8c14.9-17.4,22.4-40.3,25.2-64.85c3.7-32.1-0.55-67.05-6.5-96.1
						c-29.5-144.4-52.95-272.3-41.7-375.2c13.8-126.2,80.9-204.65,199.35-233.3c105.5-25.5,207.35,9.35,279.45,95.5
						c6.8,8.15,13.2,16.6,19.25,25.3C3193.05,1982.15,3207.25,2116.2,3159,2226.05z"/>
				</g>
				<g>
					<path style="fill:#FFB531;" d="M3159,2226.05c-12.2,27.8-44.65,40.45-72.45,28.2c-27.85-12.2-40.45-44.65-28.25-72.45
						c28.05-63.8,25.3-139.6-4.7-202.9c34.35-24.1,63.85-55.9,71.2-96.05C3193.05,1982.15,3207.25,2116.2,3159,2226.05z"/>
				</g>
				<g style="opacity:0.3;">
					<path style="fill:#000072;" d="M3064.55,2236.75c-11.45-15.35-14.5-36.2-6.25-54.95c28.05-63.8,25.3-139.6-4.7-202.9
						c-8.6-18.15-19.4-35.25-32.4-50.75c-26-31.1-82.65-80.1-169.3-59.15c-140.45,33.9-141.9,155.15-75.65,479.55
						c22.55,110.45,7.7,196.5-44.1,255.85c-44.7,51.15-105.45,67.6-145.65,72.75c-23.85,3-40.45,2.05-42.2,1.9
						c-30.3-2-53.25-28.2-51.25-58.5c2-30.2,28-53.05,58.2-51.25c1.95,0.1,64,2.3,98.5-37.8c14.9-17.4,22.4-40.3,25.2-64.85
						c4.625,0.654,9.891,1.817,15.208,3.839c23.629,8.986,48.926-8.595,48.038-33.859c-0.545-15.528-2.663-34.819-7.146-58.78
						c-21.4-114.65-154.05-521.1,135-555C3118.95,1793.2,3207.25,2131.95,3064.55,2236.75z"/>
				</g>
				<g>
					<path style="fill:#000072;" d="M2553.444,2699.307c-5.977,0-9.692-0.234-10.532-0.293c-41.206-2.739-72.544-38.545-69.8-79.805
						c2.725-40.952,38.188-72.329,79.292-69.893c0.254,0,54.063,1.826,82.168-30.864c22.754-26.47,27.832-77.568,14.292-143.877
						c-29.829-146.094-53.579-275.63-41.992-381.406c14.829-135.449,87.002-219.746,214.512-250.547
						c113.159-27.344,222.319,9.863,299.521,102.095c89.233,106.611,111.909,263.086,56.421,389.36
						c-8.057,18.34-22.773,32.441-41.44,39.712c-18.667,7.28-39.053,6.841-57.397-1.221c-37.861-16.641-55.127-60.977-38.486-98.838
						c33.086-75.293,19.375-168.823-34.121-232.739c-23.042-27.525-73.071-70.967-149.277-52.563
						c-116.509,28.145-129.009,121.929-60.776,456.138c23.862,116.855,7.505,208.691-48.628,272.964
						c-48.179,55.166-112.622,73.643-158.198,79.434l0,0C2574.005,2698.873,2561.613,2699.307,2553.444,2699.307z M2548.17,2589.2
						c-18.462,0-33.921,14.253-35.146,32.666c-1.279,19.253,13.345,35.962,32.603,37.241c0.205,0.015,15.771,1.045,38.335-1.821l0,0
						c38.691-4.917,93.198-20.371,133.11-66.064c47.485-54.38,60.801-134.673,39.565-238.652
						c-31.514-154.37-50.361-273.857-39.907-355.278c10.649-82.954,50.894-128.521,130.483-147.744
						c97.217-23.491,160.347,31.133,189.341,65.771c63.027,75.303,79.131,185.62,40.068,274.507
						c-7.764,17.666,0.293,38.359,17.959,46.123c8.56,3.76,18.071,3.975,26.787,0.571c8.706-3.394,15.576-9.976,19.336-18.535
						c49.512-112.681,29.229-252.368-50.474-347.593c-67.07-80.132-161.641-112.52-259.453-88.892
						c-110.928,26.802-171.162,97.461-184.141,216.025c-10.962,100.024,12.271,226.313,41.416,369.048
						c11.367,55.669,16.582,131.733-23.149,177.959c-40.947,47.612-111.621,44.888-114.614,44.727
						C2549.582,2589.219,2548.874,2589.2,2548.17,2589.2z"/>
				</g>
				<g>
					<path style="fill:#FFFFFF;" d="M2683.9,2605.15c-10.55,73.75-67.45,145.05-67.45,145.05h-1214.5
						c-59.2-42.8-113.2-111.3-117.95-177.4l-0.05-0.05c-2.25-30.7,6.15-60.9,29.6-87.75c73.95-84.65,181.1,7.5,181.1,7.5
						c-133.95-256.05,114.1-574.3,114.1-574.3s0.05-0.05,0.15-0.2c152-174.45,666.45-243.15,728.35-166.1
						c3.4,4.25,5.45,9,5.95,14.15c5.7,58.1,37.75,138.8,63.15,195.35c16.7,37.15,38.5,71.6,63.9,103.35
						c59,73.8,90.65,153.35,107.35,222.05c13.9,56.8,17.55,106.25,18,138.95c0.45,26.1-1.15,41.55-1.15,41.55
						C2674.8,2497,2691.5,2551.7,2683.9,2605.15z"/>
				</g>
				<g>
					<g>
						<circle style="fill:#FF9FD4;" cx="1448.571" cy="2641.027" r="49.286"/>
					</g>
					<g>
						
							<ellipse transform="matrix(0.9239 -0.3827 0.3827 0.9239 -825.9371 1167.021)" style="fill:#FF9FD4;" cx="2520.536" cy="2659.643" rx="49.286" ry="49.286"/>
					</g>
					<g>
						<circle style="fill:#FF9FD4;" cx="1359.509" cy="2609.152" r="24.777"/>
					</g>
					<g>
						<circle style="fill:#FF9FD4;" cx="1389.241" cy="2551.563" r="24.777"/>
					</g>
					<g>
						<circle style="fill:#FF9FD4;" cx="1456.339" cy="2549.688" r="24.777"/>
					</g>
					<g>
						
							<ellipse transform="matrix(0.9239 -0.3827 0.3827 0.9239 -787.5042 1153.9406)" style="fill:#FF9FD4;" cx="2506.875" cy="2556.497" rx="27.914" ry="27.914"/>
					</g>
					<g>
						
							<ellipse transform="matrix(0.2298 -0.9732 0.9732 0.2298 -550.2234 4564.5425)" style="fill:#FF9FD4;" cx="2608.661" cy="2629.89" rx="27.914" ry="27.914"/>
					</g>
					<g>
						
							<ellipse transform="matrix(0.2298 -0.9732 0.9732 0.2298 -499.0563 4482.4092)" style="fill:#FF9FD4;" cx="2582.354" cy="2556.497" rx="27.914" ry="27.914"/>
					</g>
				</g>
				<g>
					<path style="fill:#FFB531;" d="M2577.6,2286.8c-23.2,5.85-47.45,8.9-72.4,8.9c-164.5,0-297.85-133.35-297.85-297.85
						c0-102.2,51.45-192.35,129.9-245.95c3.4,4.25,5.45,9,5.95,14.15c5.7,58.1,37.75,138.8,63.15,195.35
						c16.7,37.15,38.5,71.6,63.9,103.35C2529.25,2138.55,2560.9,2218.1,2577.6,2286.8z"/>
				</g>
				<g style="opacity:0.3;">
					<path style="fill:#000072;" d="M2594.45,2467.3c-101.25-136.6-251.25-75.5-251.25-75.5
						c16.785-36.777,53.49-57.178,85.724-68.364c39.31-13.642,61.101-56.489,46.75-95.546
						c-20.239-55.083-60.808-99.198-91.746-138.248c-22.495-28.394-42.313-64.009-56.509-92.531
						c-13.456-27.036-45.83-38.724-73.596-26.848c-447.821,191.541-645.074-52.063-645.074-52.063s0.05-0.05,0.15-0.2
						c152-174.45,666.45-243.15,728.35-166.1c3.4,4.25,5.45,9,5.95,14.15c5.7,58.1,37.75,138.8,63.15,195.35
						c16.7,37.15,38.5,71.6,63.9,103.35c59,73.8,90.65,153.35,107.35,222.05C2602.55,2389,2594.45,2467.3,2594.45,2467.3z"/>
				</g>
				<g style="opacity:0.3;">
					<path style="fill:#000072;" d="M2683.9,2605.15c-10.55,73.75-67.45,145.05-67.45,145.05h-1214.5
						c-59.2-42.8-113.2-111.3-117.95-177.4l71.061,66.824c34.616,32.552,80.345,50.676,127.863,50.676h25.136
						c33.371,0,65.854-10.747,92.64-30.65h0c0,0,18.25,20.35,47.15,0c0,0,30,15.55,70.7-29.2c0,0,59.3-18.2,37.7-80.75
						s-76.25-254.35-40.1-333.1c0,0,36.15,310.55,122.95,312c0,0,89.95,23.9,234.6-311.85c-1.85,5.95-62.3,197.4-139,322.9
						c0,0-15.25,73.1,50.65,64.3c0,0,11.25,59.25,99.65,40.05c0,0,106.05,79.95,160.7-236.15c0,0,22.45-75.55,9.65-172.45
						c0,0,35.473,169.809-0.626,343.381c-10.145,48.777,24.01,95.805,73.519,101.378c40.075,4.511,96.761,8.339,176.826,9.851
						c56.012,1.057,110.721-18.91,151.72-57.088C2666.046,2624.3,2675.28,2614.98,2683.9,2605.15z"/>
				</g>
				<g style="opacity:0.3;">
					<path style="fill:#000072;" d="M2594.45,2467.3c0,0-169.8-40.7-203,183.75c0,0-33.15-234.6,204.15-225.3
						C2596.05,2451.85,2594.45,2467.3,2594.45,2467.3z"/>
				</g>
				<g style="opacity:0.3;">
					<path style="fill:#000072;" d="M1944.107,2523.798c0,0,15.134,36.336,42.857,33.122c6.686-0.775,12.039-2.018,16.315-3.457
						c7.428-2.5,15.089,2.832,15.749,10.641c1.201,14.202,6.067,30.7,21.775,33.798c21.437,4.227,45.143-8.412,60.206-20.638
						c6.812-5.529,17.109-2.546,19.473,5.902c0.041,0.146,0.081,0.293,0.121,0.44c1.382,5.103,8.151,6.205,11.155,1.855
						c25.219-36.518,92.577-149.327,123.592-350.061c0,0,26.404,230.582-105.187,405.627c0,0-31.413,29.116-65.163,2.973
						c0,0-69.566,22.188-99.65-40.05C1985.35,2603.95,1914.107,2600.631,1944.107,2523.798z"/>
				</g>
				<g style="opacity:0.3;">
					<path style="fill:#000072;" d="M1547.411,2607.545c0,0,52.603,34.146,66.022,6.614c2.859-5.866,10.648-7.451,15.939-3.631
						c9.11,6.576,21.976,11.854,34.958,3.848c12.098-7.46,16-19.677,16.885-29.997c0.785-9.152,6.063-17.657,14.667-20.877
						c9.5-3.555,18.498-12.427,11.574-34.305c-12.589-39.777-45.156-243.496,8.694-312.596c0,0-31.914,69.59,5.611,208.638
						c0,0,82.482,188.876-3.211,205.212c0,0-20.871,53.836-79.532,28.122C1639.018,2658.571,1586.786,2695.536,1547.411,2607.545z"
						/>
				</g>
				<g>
					<path style="fill:#000072;" d="M2616.427,2770.176H1401.964c-4.204,0-8.301-1.323-11.709-3.784
						c-55.039-39.751-116.958-109.399-125.669-185.664c-4.629-40.527,7.1-78.179,33.921-108.882
						c46.787-53.579,107.148-48.56,154.282-28.408c-31.025-99.009-20.933-215.742,30.146-341.636
						c45.781-112.847,107.427-192.559,110.024-195.898c0.22-0.278,0.449-0.557,0.679-0.825
						c62.949-72.432,194.048-135.747,359.683-173.696c143.794-32.949,287.178-40.166,356.758-17.954
						c41.021,13.091,51.484,34.795,53.042,50.693c5.391,55.161,36.416,133.281,61.489,189.107
						c15.249,33.94,35.859,67.261,61.26,99.033c129.541,162.021,131.924,347.92,129.512,401.953
						c45.464,20.063,74.082,50.322,85.156,90.112c27.041,97.119-64.565,213.423-68.477,218.325
						C2628.263,2767.408,2622.511,2770.176,2616.427,2770.176z M1408.537,2730.176h1197.866
						c18.267-25.381,73.828-109.863,55.586-175.19c-8.672-31.045-33.027-53.589-74.463-68.906
						c-8.56-3.169-13.892-11.733-12.954-20.815c0.21-2.09,19.736-213.325-119.941-388.022c-27.505-34.4-49.878-70.61-66.504-107.627
						c-26.304-58.55-58.896-141.05-64.819-201.597c-0.386-3.989-7.271-10.703-25.386-16.484
						c-124.004-39.57-542.275,28.916-673.701,179.341c-9.644,12.646-236.138,314.731-111.851,552.358
						c4.443,8.501,2.227,18.96-5.288,24.927c-7.51,5.977-18.193,5.767-25.479-0.493c-3.74-3.198-93.091-78.066-152.969-9.512
						c-19.492,22.319-27.671,48.574-24.307,78.032C1310.119,2626.875,1350.788,2686.763,1408.537,2730.176z"/>
				</g>
				<g>
					<path style="fill:#000072;" d="M1513.521,2485.894c6.711,18.645,14.324,37.756,22.407,56.147
						c8.127,18.44,16.838,36.592,26.584,53.56c2.456,4.216,4.873,8.484,7.529,12.39l3.884,6.003l4.097,5.532
						c2.666,3.916,5.579,6.853,8.362,10.09c0.696,0.886,1.399,1.511,2.095,2.056l2.058,1.792l2.017,1.843
						c0.73,0.62,1.741,1.213,2.595,1.826c7.048,5.034,14.443,8.691,20.403,9.941c2.932,0.583,5.425,0.642,7.151,0.247
						c0.847-0.215,1.641-0.41,2.163-0.745c0.286-0.125,0.535-0.303,0.669-0.4c0.071-0.056,0.166-0.098,0.11-0.076
						c-0.029,0.024,0.059-0.027-0.095,0.105c-0.144,0.156,0.005-0.034-0.737,0.852l26.555-4.111c-0.339-0.222-0.134-0.1,0.059,0.005
						c0.146,0.088,0.327,0.19,0.593,0.31c0.481,0.227,0.918,0.486,1.479,0.691c1.038,0.488,2.168,0.84,3.281,1.233
						c2.258,0.649,4.536,1.152,6.743,1.27c4.426,0.303,8.513-0.464,12.605-2.209c4.063-1.892,8.103-5.081,12.009-9.041
						c1.909-2.08,3.691-4.534,5.588-6.772l5.085-7.935l21.992-9.504l-0.022-0.007c-0.593-0.142-0.012-0.034,0.1-0.032l0.828,0.068
						c0.583,0.039,1.221,0.061,1.836,0.044c1.245-0.007,2.466-0.127,3.542-0.352c2.217-0.415,3.806-1.121,5.037-1.951
						c1.23-0.845,2.256-1.89,3.301-3.657c1.045-1.746,2.056-4.163,2.82-7.078c1.46-5.996,1.721-13.66,1.294-21.636
						c-0.483-8.018-1.624-16.414-3.44-24.902c-0.764-4.221-1.929-8.518-2.825-12.791l-3.401-12.998
						c-2.419-9.207-5.042-18.357-7.288-27.598c-4.443-18.501-8.606-37.046-12.131-55.728
						c-6.873-37.375-12.432-75.054-13.958-113.223c-0.43-9.514-0.347-19.121-0.317-28.655c0.508-9.604,0.754-19.15,1.96-28.726
						c0.432-4.763,1.199-9.546,2.004-14.299c0.376-2.378,0.784-4.744,1.24-7.102l1.755-7.056c0.625-2.339,1.082-4.678,1.841-6.98
						l2.488-6.833c1.338-4.585,4.211-8.755,6.282-12.898c-3.721,18.608-2.305,36.982-0.715,55.32
						c1.714,18.311,4.514,36.558,7.708,54.719c6.191,36.333,13.889,72.495,23.403,108.179c4.495,17.896,9.636,35.632,14.978,53.271
						c2.537,8.86,5.442,17.605,8.14,26.409c2.849,9.131,5.859,18.728,8.003,28.528c2.3,9.771,3.994,19.939,4.875,30.586
						c0.835,10.664,0.71,21.938-2.129,34.202c-1.56,6.145-3.877,12.573-7.708,18.826c-3.813,6.223-9.373,12.158-16.021,16.375
						c-6.626,4.265-14.041,6.802-21.086,7.725c-3.545,0.515-7.017,0.676-10.449,0.562c-1.724-0.046-3.425-0.173-5.171-0.374
						l-2.654-0.361c-1.042-0.183-1.619-0.261-3.352-0.659l-0.051-0.012l21.99-9.504l-7.288,11.362
						c-2.93,3.667-5.723,7.373-8.987,10.894c-6.755,6.956-14.753,13.501-24.626,18.042c-9.888,4.434-21.233,6.492-32.053,5.652
						c-5.42-0.359-10.662-1.46-15.718-2.983c-2.507-0.83-5.002-1.689-7.444-2.793c-1.216-0.493-2.466-1.135-3.699-1.75
						c-0.598-0.291-1.255-0.645-1.936-1.035c-0.64-0.364-1.27-0.703-2.412-1.443l26.553-4.111c-1.155,1.382-1.472,1.641-2.068,2.261
						c-0.591,0.608-1.008,0.959-1.514,1.418c-0.996,0.913-1.943,1.638-2.905,2.358c-1.936,1.438-3.882,2.656-5.896,3.694
						c-4.009,2.17-8.203,3.523-12.38,4.463c-8.401,1.812-16.44,1.277-23.601-0.159c-14.307-3.125-25.479-9.514-35.273-16.323
						c-1.245-0.889-2.463-1.628-3.728-2.646l-3.809-3.271c-2.393-2.2-5.32-4.424-7.185-6.692
						c-4.036-4.524-8.264-9.089-11.455-13.721l-5.107-6.938l-4.551-7.002c-3.14-4.658-5.825-9.38-8.572-14.097
						c-10.84-18.887-20.005-38.079-28.555-57.451c-8.538-19.458-16.248-38.767-23.535-59.016L1513.521,2485.894z"/>
				</g>
				<g>
					<path style="fill:#000072;" d="M1632.219,2662.852c-3.21-5.522-5.671-11.069-8.062-16.829
						c-2.3-5.769-4.365-11.665-6.138-17.695c-1.741-6.038-3.347-12.188-4.119-18.628c-0.791-6.321-1.021-13.315,1.099-19.7
						c3.557,5.552,7.463,9.966,11.165,14.724c3.799,4.648,7.244,9.385,10.889,14.06l10.723,14.084
						c3.455,4.712,6.99,9.553,10.005,14.28L1632.219,2662.852z"/>
				</g>
				<g>
					<path style="fill:#000072;" d="M1702.546,2636.743c-3.75-12.505-7.168-25.071-10.188-37.844
						c-1.567-6.355-3.066-12.742-4.346-19.214c-1.316-6.448-2.41-13.018-3.013-19.685c8.186,10.525,15.762,21.104,23.076,31.865
						c7.473,10.664,14.695,21.472,21.699,32.285L1702.546,2636.743z"/>
				</g>
				<g>
					<path style="fill:#000072;" d="M2590.981,2487.017c-0.513-0.09-2.129-0.322-3.333-0.449c-1.318-0.149-2.661-0.281-4.043-0.376
						c-2.739-0.195-5.542-0.361-8.357-0.459c-5.635-0.154-11.335-0.093-17.012,0.364c-11.357,0.869-22.642,2.834-33.591,5.92
						c-21.936,6.13-42.366,17.283-59.907,32.678c-8.647,7.83-16.641,16.589-23.923,26.106c-3.398,4.932-7.083,9.722-10.083,15.005
						c-1.575,2.593-3.311,5.105-4.802,7.771l-4.39,8.071c-11.785,21.631-20.962,45.151-30.112,69.424
						c-0.525-25.95,3.418-52.095,12.024-77.241c8.542-25.137,22.029-49.229,40.537-69.944
						c18.672-20.498,42.708-36.907,69.316-46.489c13.281-4.805,27.078-8.206,41.096-9.792c7.002-0.879,14.06-1.292,21.167-1.411
						c3.56-0.056,7.129-0.002,10.747,0.239c1.799,0.098,3.63,0.244,5.483,0.425c1.965,0.2,3.513,0.354,6.147,0.769
						L2590.981,2487.017z"/>
				</g>
				<g>
					<path style="fill:#000072;" d="M2559.146,2475.315c-0.779-1.37-2.302-3.862-3.611-5.833c-1.372-2.083-2.754-4.226-4.226-6.309
						c-2.922-4.187-5.994-8.328-9.202-12.354c-6.46-8.022-13.357-15.713-20.833-22.742c-14.875-14.158-31.926-25.718-50.781-33.682
						c-18.911-7.834-39.646-11.543-61.167-11.636c-21.555-0.032-43.667,3.652-66.111,9.023
						c18.735-13.481,40.471-23.247,63.967-28.494c23.489-5.193,48.901-4.512,73.022,1.943c24.136,6.489,46.68,18.682,65.908,34.329
						c9.612,7.856,18.506,16.514,26.553,25.896c4.011,4.702,7.898,9.517,11.462,14.622c1.799,2.542,3.586,5.095,5.256,7.791
						c1.746,2.8,3.184,5.142,5.122,8.745L2559.146,2475.315z"/>
				</g>
				<g>
					<path style="fill:#000072;" d="M2073.75,2216.606c-3.569,28.181-10.403,55.286-18.35,81.975
						c-8.027,26.667-17.837,52.668-27.383,78.828c-9.565,26.157-19.907,52.029-30.767,77.825
						c-2.637,6.472-5.464,12.886-8.376,19.272c-2.905,6.394-5.657,12.822-8.745,19.18l-9.126,19.109l-9.805,18.96l0.947-1.946
						c-0.483,1.26-1.311,3.586-1.902,5.488c-0.645,2.004-1.221,4.053-1.763,6.091c-1.06,4.087-1.899,8.181-2.446,12.153
						c-1.191,7.9-1.082,15.525,0.476,20.474c1.748,4.983,3.147,6.653,7.239,8.816c4.36,1.87,11.543,3.147,19.583,2.742h0.01
						l20.789,15.789c-0.103-0.459,0.005-0.066,0.083,0.176c0.046,0.217,0.166,0.537,0.298,0.874
						c0.217,0.645,0.464,1.311,0.806,2.012c0.537,1.399,1.377,2.751,2.092,4.121c0.916,1.252,1.614,2.678,2.681,3.799l1.438,1.814
						l1.65,1.592c4.373,4.268,9.885,7.263,16.394,9.136c6.379,2.144,14.194,2.083,21.941,2.014
						c4.036-0.522,8.062-0.911,12.139-1.514l12.422-2.742h0.007l15.945,2.471c-0.222-0.146,0.234,0.103,0.535,0.256
						c0.278,0.164,0.693,0.347,1.086,0.53c0.754,0.381,1.575,0.732,2.444,1.064c1.658,0.73,3.477,1.26,5.222,1.787
						c3.555,1.001,7.122,1.514,10.559,1.709c6.919,0.364,13.237-1.121,19.26-4.443c6.016-3.364,11.697-8.657,16.904-15.078
						c1.282-1.628,2.397-3.542,3.647-5.273c1.216-1.882,2.461-3.296,3.691-5.547c2.439-4.294,4.993-8.464,7.356-12.854
						c9.59-17.471,18.215-35.879,26.384-54.419l5.984-14.001l5.583-14.185c3.936-9.385,7.166-19.031,10.74-28.567
						c13.398-38.425,24.248-77.842,30.952-117.979c0.776-5.022,1.765-10.032,2.502-15.061l2.014-15.125
						c1.699-10.093,2.361-20.217,3.694-30.405l0.933-7.656l0.471-7.664l1.331-15.444c0.884-10.344,0.825-20.696,2.036-31.394
						c3.386,9.985,6.514,20.234,8.74,30.64c1.699,10.425,4.05,20.991,4.587,31.597c0.823,10.603,1.685,21.309,1.27,31.934
						l-0.371,15.991c-0.244,5.32-0.828,10.601-1.299,15.903c-3.992,42.383-12.083,84.351-24.08,125.149
						c-6.042,20.388-12.549,40.669-20.442,60.481c-7.754,19.88-16.04,39.551-26.094,58.777c-2.446,4.829-5.193,9.617-7.783,14.429
						c-1.208,2.349-3.159,5.071-4.727,7.581c-1.697,2.549-3.242,5.132-5.144,7.603c-7.725,9.844-17.175,19.27-29.341,26.165
						c-12.1,6.975-26.921,10.198-40.759,9.373c-6.948-0.352-13.699-1.589-20.115-3.569c-3.206-1.023-6.357-2.092-9.446-3.491
						c-1.541-0.649-3.091-1.365-4.646-2.178c-0.774-0.391-1.533-0.767-2.383-1.257c-0.837-0.476-1.526-0.837-2.852-1.677
						l15.945,2.471l-0.01,0.002l-15.828,3.494c-5.442,0.847-11.028,1.426-16.56,2.041c-11.445,0.251-23.235,0.259-35.374-3.457
						c-11.987-3.369-23.975-9.717-33.394-18.977l-3.484-3.499l-3.113-3.809c-2.148-2.493-3.801-5.313-5.598-8.04
						c-1.597-2.854-3.198-5.681-4.465-8.76c-0.681-1.484-1.292-3.069-1.855-4.707c-0.288-0.793-0.574-1.609-0.842-2.556
						c-0.266-0.916-0.518-1.672-0.884-3.308l20.786,15.789h-0.012c-11.592,0.767-24.651,0.54-38.574-5.271
						c-6.914-2.988-13.833-7.813-19.172-14.041c-5.405-6.199-8.931-13.547-10.967-20.508c-3.992-14.092-3.281-26.724-1.553-38.264
						c0.935-5.791,2.222-11.355,3.762-16.794c0.784-2.715,1.611-5.403,2.537-8.079c0.959-2.786,1.794-5.11,3.176-8.42l0.029-0.068
						c0.259-0.623,0.601-1.306,0.92-1.882c13.206-23.306,25.559-47.725,37.583-72.317c12.217-24.534,23.572-49.612,35.281-74.568
						c11.733-24.956,22.449-50.381,34.521-75.3C2045.449,2265.071,2058.328,2240.432,2073.75,2216.606z"/>
				</g>
				<g>
					<path style="fill:#000072;" d="M1971.252,2598.635c3.884-5.439,7.798-10.823,11.865-16.143
						c3.984-5.359,8.206-10.588,12.319-15.874c4.146-5.271,8.452-10.449,12.749-15.635c4.38-5.127,8.816-10.264,13.599-15.09
						l-5.625,19.392l-5.828,19.207c-2.043,6.348-3.938,12.771-6.06,19.072c-2.036,6.343-4.207,12.629-6.384,18.872
						L1971.252,2598.635z"/>
				</g>
				<g>
					<path style="fill:#000072;" d="M2068.264,2634.458l27.783-37.031c4.551-6.24,9.351-12.366,13.845-18.667
						c4.583-6.279,9.194-12.463,13.142-19.294c-0.532,7.954-2.634,15.742-4.636,23.401c-2.236,7.585-4.519,15.176-7.153,22.595
						c-2.615,7.422-5.203,14.873-8.083,22.17c-2.793,7.368-5.784,14.551-8.926,21.838L2068.264,2634.458z"/>
				</g>
				<g>
					<g>
						<path style="fill:#FFB531;" d="M2697.942,1513.297c0,132.875-52.013,240.894-140.392,322.837
							c-10.76,10.055-22.083,19.593-33.877,28.849c0,0,0,0.047-0.046,0.047c-44.965,35.145-97.355,64.652-155.569,88.521
							c-96.649,39.562-209.461,63.477-331.153,71.23h-0.047c-29.084,1.88-58.685,2.772-88.662,2.772
							c-183.712,0-352.015-34.816-482.399-103.039c-33.641-17.62-64.746-37.448-92.984-59.484c-0.047,0-0.047-0.047-0.047-0.047
							c-13.766-10.713-26.828-21.99-39.139-33.783c-35.709-34.111-65.216-72.593-87.487-115.396
							c-30.823-59.343-47.737-126.908-47.737-202.507c0-68.223,14.236-135.083,40.266-198.372
							c5.356-46.469,10.853-92.514,16.773-137.996c21.473-163.697,49.241-320.629,99.844-465.25
							c26.594-75.835,117.84-105.858,183.667-59.906c94.441,66.062,185.874,159.046,238.404,236.619l-6.202,4.933
							c31.105-7.095,62.961-12.498,95.381-16.116c30.494-3.336,61.41-5.074,92.843-5.074c56.524,0,111.308,5.638,163.885,16.257
							c52.531-77.573,143.964-170.557,238.404-236.619c65.827-45.952,157.12-15.928,183.667,59.906
							c20.814,59.483,37.823,121.082,52.013,184.418c30.305,134.613,48.301,276.885,65.121,423.104l-1.128-0.893
							c6.673,17.573,12.546,35.38,17.433,53.469C2691.364,1417.729,2697.942,1465.137,2697.942,1513.297z"/>
					</g>
					<g>
						<path style="fill:#000072;" d="M1948.195,2030.054c-187.158,0-354.37-35.728-483.555-103.325
							c-33.667-17.632-64.844-37.544-92.69-59.199h-1.641l-0.025-1.309c-13.413-10.483-26.323-21.655-38.389-33.213
							c-36.406-34.775-66.006-73.823-87.974-116.05c-31.865-61.348-48.022-129.868-48.022-203.662
							c0-66.88,13.569-133.833,40.322-198.999c6.25-54.209,11.572-97.974,16.738-137.69
							c18.686-142.441,45.176-309.165,99.966-465.752c13.013-37.109,41.88-65.298,79.194-77.334
							c36.973-11.934,76.426-6.021,108.262,16.201c90.459,63.271,184.287,156.401,239.043,237.266l1.142,1.69
							c28.12-6.055,56.895-10.742,85.689-13.955c30.879-3.374,62.207-5.088,93.12-5.088c54.927,0,109.673,5.376,162.754,15.977
							c54.878-80.532,148.159-172.969,238.105-235.889c31.841-22.231,71.323-28.135,108.32-16.187
							c37.305,12.046,66.152,40.225,79.136,77.319c20.039,57.256,37.075,117.671,52.095,184.692
							c31.06,137.959,49.224,284.795,65.166,423.364l0.313,2.739c6.211,16.714,11.558,33.34,15.918,49.473
							c12.778,46.626,19.258,94.463,19.258,142.173c0,128.569-47.505,237.803-141.191,324.668
							c-9.966,9.316-20.801,18.56-33.076,28.237v1.284l-1.67,0.029c-44.214,34.448-96.523,64.17-155.498,88.35
							c-96.504,39.497-208.184,63.525-331.938,71.411C2008.493,2029.121,1978.61,2030.054,1948.195,2030.054z M1375.265,1863.775
							c27.549,21.396,58.389,41.084,91.694,58.521c128.472,67.226,294.878,102.759,481.235,102.759
							c30.308,0,60.083-0.933,88.501-2.769c123.267-7.852,234.419-31.753,330.415-71.05c58.438-23.96,110.264-53.384,154.063-87.466
							l0.957-0.752c12.559-9.858,23.584-19.248,33.711-28.711c92.637-85.889,139.6-193.887,139.6-321.011
							c0-47.266-6.421-94.658-19.082-140.859c-4.688-17.344-10.527-35.259-17.358-53.242l-3.218-8.482l3.511,2.783
							c-15.762-136.675-33.828-281.118-64.39-416.855c-14.971-66.831-31.958-127.065-51.929-184.136
							c-12.466-35.601-40.151-62.651-75.957-74.214c-35.493-11.465-73.364-5.801-103.921,15.532
							c-90,62.954-183.325,155.576-237.764,235.967l-0.933,1.377l-1.631-0.327c-53.262-10.752-108.237-16.206-163.394-16.206
							c-30.732,0-61.88,1.704-92.568,5.059c-32.017,3.574-64.014,8.979-95.098,16.069l-10.698,2.441l12.974-10.327
							c-54.619-79.946-147.188-171.606-236.465-234.053c-30.542-21.323-68.403-26.982-103.862-15.547
							c-35.816,11.553-63.521,38.608-76.016,74.229c-54.634,156.157-81.069,322.564-99.722,464.751
							c-5.176,39.771-10.503,83.608-16.768,137.959l-0.171,0.664c-26.597,64.658-40.083,131.079-40.083,197.417
							c0,72.983,15.967,140.733,47.456,201.358c21.719,41.738,50.986,80.342,86.997,114.741
							c12.227,11.714,25.332,23.022,38.945,33.618L1375.265,1863.775z"/>
					</g>
				</g>
				<g>
					<path style="fill:#FFFFFF;" d="M2402.826,1932.783c0,0-13.202,7.846-34.769,20.767
						c-96.649,39.562-209.461,63.477-331.153,71.23h-0.047c-29.084,1.88-58.685,2.772-88.662,2.772
						c-183.712,0-352.015-34.816-482.399-103.039c-31.01-94.629,52.013-161.959,186.626-205.044
						c50.839-16.257,90.635-56.852,103.415-108.677c52.812-214.019,307.097-214.019,359.909,0
						c12.78,51.825,52.576,92.42,103.415,108.677C2357.673,1763.777,2441.589,1833.785,2402.826,1932.783z"/>
				</g>
				<g style="opacity:0.3;">
					<path style="fill:#000072;" d="M1244.402,1492.697c0,75.608,16.893,143.181,47.744,202.513
						c22.25,42.8,51.762,81.273,87.453,115.369c12.31,11.794,25.392,23.074,39.144,33.786c0,0,0,0.052,0.052,0.052
						c137.515,107.437,344.252,162.546,575.401,162.546c29.976,0,59.59-0.927,88.638-2.781h0.052
						c109.188-6.953,211.166-26.885,300.835-59.59c49.907-22.147,95.179-48.723,134.734-79.574c0.052,0,0.052-0.052,0.052-0.052
						c11.794-9.219,23.125-18.799,33.889-28.842c8.498-7.88,16.687-16.018,24.516-24.413
						c-112.021,63.041-254.378,100.072-411.619,110.064h-0.052c-29.048,1.854-58.662,2.781-88.638,2.781
						c-231.15,0-437.886-55.109-575.401-162.547c-0.052,0-0.052-0.051-0.052-0.051c-13.752-10.713-26.833-21.992-39.143-33.787
						c-35.692-34.096-65.204-72.569-87.454-115.369c-30.851-59.333-47.744-126.906-47.744-202.513
						c0-68.243,14.215-135.095,40.276-198.393c5.357-46.457,10.816-92.501,16.739-137.979
						c20.395-155.49,46.457-304.852,92.449-443.397c-10.043-0.927-20.138-0.618-29.975,0.927
						c-19.984,14.009-40.885,29.273-50.457,54.423c-50.937,133.841-78.956,307.581-100.433,471.261
						c-5.923,45.478-11.811,90.887-17.168,137.344C1252.179,1357.774,1244.402,1424.454,1244.402,1492.697z"/>
				</g>
				<g style="opacity:0.6;">
					<path style="fill:#FFFFFF;" d="M2356.526,651.793c-8.034,5.614-16.018,11.434-24.001,17.408
						c63.608-30.542,142.151,0.463,166.461,69.942c65.1,186.084,92.449,392.563,117.12,607.488l-1.133-0.875
						c23.794,62.268,36.619,127.936,36.619,194.994c0,132.88-52.019,240.884-140.4,322.827
						c-10.764,10.043-22.095,19.623-33.889,28.842c0,0,0,0.052-0.052,0.052c-4.79,3.76-9.683,7.468-14.679,11.073
						c19.675-12,38.371-24.825,55.882-38.525c0.052,0,0.052-0.052,0.052-0.052c11.794-9.219,23.125-18.799,33.889-28.842
						c88.381-81.943,140.4-189.946,140.4-322.826c0-67.058-12.825-132.726-36.619-194.994l1.133,0.876
						c-24.671-214.926-52.02-421.405-117.12-607.489C2513.613,635.826,2422.348,605.8,2356.526,651.793z"/>
				</g>
				<g style="opacity:0.6;">
					<path style="fill:#FFFFFF;" d="M1378.26,666.368c36.104-14.627,78.904-11.897,114.339,12.876
						c83.639,58.465,164.895,138.089,218.882,209.411c12.321,16.276,32.745,23.978,52.879,20.61
						c0.111-0.019,0.223-0.037,0.334-0.056h0.052c3.091-5.717,6.49-11.846,9.786-17.769c-2.832,0.618-5.717,1.236-8.55,1.906
						l6.232-4.945c-52.534-77.565-143.953-170.581-238.411-236.609C1483.381,616.564,1418.022,625.938,1378.26,666.368z"/>
				</g>
				<g>
					<g>
						<path style="fill:#F962BB;" d="M2311.666,954.172c31.727-58.096,72.775-113.154,102.338-149.876
							c15.708-19.572,47.074-12.412,52.792,12.052c14.421,61.65,34.714,165.688,37.649,273.743v0.052"/>
					</g>
					<g>
						<path style="fill:#000072;" d="M2504.445,1090.142h-2.5c-2.856-105.259-22.017-206.68-37.588-273.223
							c-2.427-10.395-10.396-18.315-20.796-20.679c-10.518-2.388-20.85,1.206-27.607,9.619
							c-28.994,36.016-70.244,91.182-102.095,149.507l-4.385-2.393c32.021-58.652,73.462-114.077,102.583-150.244
							c7.861-9.8,20.381-14.16,32.612-11.367c12.285,2.793,21.694,12.149,24.561,24.419c15.62,66.768,34.844,168.545,37.715,274.243
							L2504.445,1090.142z"/>
					</g>
				</g>
				<g style="opacity:0.6;">
					<path style="fill:#FFFFFF;" d="M2284.209,984.584l135.683,90.648c23.916,15.978,53.743,20.373,81.252,11.974l0,0
						l-189.477-133.033c31.727-58.097,72.775-113.154,102.338-149.877c0.103-0.154,0.206-0.258,0.361-0.361
						c-11.434-13.854-34.096-15.348-46.714,0.361c-24.516,30.453-63.364,81.448-94.008,131.104
						C2263.389,952.016,2267.974,973.738,2284.209,984.584z"/>
				</g>
				<g style="opacity:0.3;">
					<path style="fill:#000072;" d="M2402.571,818.665c1.03,2.06,1.854,4.275,2.42,6.695
						c11.949,51.143,27.966,131.541,34.765,219.149l64.689,45.632v-0.052c-2.936-108.055-23.228-212.093-37.65-273.743
						c-5.717-24.464-37.083-31.623-52.792-12.052C2410.348,808.828,2406.537,813.618,2402.571,818.665z"/>
				</g>
				<g>
					<g>
						<path style="fill:#F962BB;" d="M1385.878,1090.142v-0.052c2.936-108.055,23.228-212.093,37.649-273.743
							c5.717-24.464,37.083-31.623,52.792-12.052c29.563,36.722,70.612,91.78,102.338,149.876"/>
					</g>
					<g>
						<path style="fill:#000072;" d="M1388.375,1090.162l-5-0.068c2.876-105.742,22.1-207.534,37.715-274.316
							c2.871-12.271,12.285-21.626,24.565-24.414c12.256-2.778,24.756,1.577,32.612,11.372
							c29.121,36.172,70.562,91.602,102.583,150.239l-4.385,2.393c-31.846-58.311-73.096-113.482-102.095-149.502
							c-6.758-8.418-17.056-12.017-27.607-9.624c-10.401,2.358-18.374,10.283-20.801,20.679
							C1410.397,883.472,1391.237,984.908,1388.375,1090.162z"/>
					</g>
				</g>
				<g style="opacity:0.6;">
					<path style="fill:#FFFFFF;" d="M1385.878,1096.615L1385.878,1096.615l0.417-19.451c4.12-103.368,23.383-201.638,37.237-260.816
						c1.03-4.532,2.988-8.447,5.511-11.743c-15.606-4.687-33.89,3.914-38.113,22.044c-12.928,55.267-30.575,144.6-36.205,240.353
						C1353.701,1084.434,1368.532,1098.625,1385.878,1096.615z"/>
				</g>
				<g style="opacity:0.3;">
					<path style="fill:#000072;" d="M1418.073,840.503c1.802,1.39,3.503,3.09,5.047,4.996c29.1,36.156,69.376,90.132,100.844,147.25
						l54.698-38.576c-31.727-58.097-72.776-113.154-102.339-149.877c-15.709-19.571-47.074-12.412-52.792,12.052
						C1421.781,823.816,1419.979,831.85,1418.073,840.503z"/>
				</g>
				<g>
					<path style="fill:#000072;" d="M1850.945,1568.334c0.05,20.706,28.627,37.422,63.827,37.336s63.695-16.941,63.644-37.647
						c-0.05-20.706-28.59-22.425-63.791-22.34C1879.426,1545.769,1850.895,1547.628,1850.945,1568.334z"/>
				</g>
				<g>
					<path style="fill:#000072;" d="M1777.964,1589.49c4.768,14.861,11.204,28.674,21.13,37.422
						c9.546,9.026,21.699,12.612,34.084,11.936c12.407-0.579,24.963-5.569,35.403-13.062c5.222-3.772,10.01-8.142,14.001-13.101
						l2.9-3.77l3.167-4.678c5.554-8.235,15.547-13.179,24.983-13.071c9.431-0.137,19.446,4.744,25.039,12.954l3.188,4.661
						l2.91,3.765c4.014,4.944,8.833,9.277,14.063,13.044c10.483,7.432,23.062,12.397,35.483,12.898
						c12.402,0.625,24.543-3.037,34.053-12.117c9.878-8.809,16.245-22.656,20.92-37.544l0.046-0.151
						c0.864-2.747,3.789-4.275,6.538-3.413c2.151,0.676,3.552,2.627,3.647,4.756c0.713,16.824-2.556,35.166-13.677,51.118
						c-5.596,7.825-13.201,14.626-21.99,19.519c-8.806,4.9-18.762,7.48-28.613,8.298c-19.871,1.616-39.219-4.312-55.537-14.451
						c-8.196-5.1-15.588-11.484-22.058-18.752c-1.565-1.865-3.101-3.762-4.592-5.688l-2.109-2.998l-1.047-1.504
						c-0.332-0.488-0.847-1.228-0.549-0.742c1.03,1.531,2.996,2.449,4.373,2.393c1.377,0.063,3.34-0.874,4.365-2.412
						c0.295-0.486-0.217,0.256-0.547,0.747l-1.04,1.509l-2.095,3.008l-4.553,5.72c-6.436,7.305-13.806,13.711-21.968,18.87
						c-16.274,10.21-35.593,16.267-55.481,14.731c-9.863-0.754-19.829-3.313-28.669-8.157c-8.818-4.854-16.45-11.631-22.092-19.424
						c-11.194-15.913-14.553-34.243-13.901-51.074c0.11-2.878,2.534-5.122,5.413-5.01c2.249,0.088,4.109,1.584,4.763,3.608
						L1777.964,1589.49z"/>
				</g>
				<g>
					
						<ellipse transform="matrix(1 -0.0024 0.0024 1 -3.5625 5.4781)" style="fill:#FFFFFF;" cx="2246.022" cy="1464.503" rx="120.719" ry="153.13"/>
				</g>
				<g>
					<path style="fill:#000072;" d="M2246.159,1633.267c-75.063,0-136.265-75.483-136.489-168.433
						c-0.225-93.057,60.757-168.911,135.942-169.097c0.088,0,0.186,0,0.269,0c75.068,0,136.27,75.483,136.494,168.433
						c0.107,44.399-13.54,86.328-38.423,118.052c-25.752,32.827-60.386,50.957-97.52,51.045
						C2246.344,1633.267,2246.247,1633.267,2246.159,1633.267z M2245.885,1327.007c-0.068,0-0.132,0-0.195,0
						c-57.944,0.146-104.932,61.938-104.751,137.749c0.186,75.727,47.368,137.236,105.22,137.241c0.068,0,0.132,0,0.195,0
						c27.358-0.068,53.276-13.945,72.988-39.072c20.571-26.225,31.851-61.27,31.763-98.677
						C2350.919,1388.521,2303.737,1327.007,2245.885,1327.007z"/>
				</g>
				<g>
					
						<ellipse transform="matrix(1 -0.0024 0.0024 1 -3.5987 5.4302)" style="fill:#000072;" cx="2226.279" cy="1479.318" rx="96.72" ry="125.012"/>
				</g>
				<g>
					
						<ellipse transform="matrix(1 -0.0024 0.0024 1 -3.5013 5.495)" style="fill:#FFFFFF;" cx="2248.831" cy="1436.783" rx="22.656" ry="33.175"/>
				</g>
				<g>
					
						<ellipse transform="matrix(0.0024 -1 1 0.0024 121.6676 3050.9705)" style="fill:#FFFFFF;" cx="1590.044" cy="1464.503" rx="153.13" ry="120.719"/>
				</g>
				<g>
					<path style="fill:#000072;" d="M1589.904,1633.267c-0.093,0-0.181,0-0.274,0c-37.134-0.088-71.767-18.218-97.515-51.04
						c-24.888-31.733-38.535-73.657-38.428-118.057l0,0c0.229-92.944,61.44-168.433,136.494-168.433c0.093,0,0.181,0,0.273,0
						c75.186,0.186,136.167,76.04,135.943,169.097C1726.173,1557.779,1664.967,1633.267,1589.904,1633.267z M1484.958,1464.249
						c-0.088,37.402,11.191,72.446,31.763,98.677c19.712,25.127,45.635,39.004,72.988,39.072c0.063,0,0.132,0,0.195,0
						c57.856,0.005,105.039-61.509,105.225-137.241c0.181-75.811-46.807-137.603-104.751-137.749c-0.064,0-0.132,0-0.195,0
						C1532.326,1327.007,1485.148,1388.516,1484.958,1464.249L1484.958,1464.249z"/>
				</g>
				<g>
					
						<ellipse transform="matrix(0.0024 -1 1 0.0024 126.5472 3085.4919)" style="fill:#000072;" cx="1609.787" cy="1479.318" rx="125.012" ry="96.72"/>
				</g>
				<g>
					
						<ellipse transform="matrix(0.0024 -1 1 0.0024 146.5887 3020.5122)" style="fill:#FFFFFF;" cx="1587.235" cy="1436.783" rx="33.175" ry="22.656"/>
				</g>
				<g>
					<path style="fill:#000072;" d="M1995.236,1654.149c0,21.684-6.386,39.04-16.687,52.071c-30.902,39.297-96.879,39.297-127.781,0
						c-10.301-13.031-16.687-30.387-16.687-52.071c31.263-6.283,58.663-17.769,80.604-36.516
						C1937.397,1638.028,1963.304,1652.141,1995.236,1654.149z"/>
				</g>
				<g>
					<path style="fill:#EF4364;" d="M1978.549,1706.22c-30.902,39.297-96.879,39.297-127.781,0
						C1881.618,1666.819,1947.698,1666.819,1978.549,1706.22z"/>
				</g>
				<g>
					<path style="fill:#000072;" d="M1914.679,1753.707c-25.566,0-49.521-8.877-67.451-25
						c-14.209-12.783-31.152-36.089-31.152-74.541h36.055c0,43.857,31.416,63.486,62.549,63.486s62.549-19.629,62.549-63.486h36.055
						C2013.283,1719.517,1963.678,1753.707,1914.679,1753.707z"/>
				</g>
				<g>
					<path style="fill:#000072;" d="M2504.45,1108.169c-4.355,0-8.652-1.577-12.026-4.595
						c-60.527-54.16-124.18-99.067-189.189-133.472c-4.263-2.256-7.441-6.123-8.828-10.742c-1.392-4.619-0.869-9.6,1.44-13.833
						c32.588-59.673,74.609-115.884,104.116-152.534c11.592-14.448,30.044-20.884,48.145-16.772
						c18.125,4.121,32.012,17.925,36.24,36.025c15.786,67.466,35.21,170.357,38.115,277.358c0.005,0.161,0.01,0.376,0.01,0.537
						c0,7.109-4.18,13.555-10.669,16.455C2509.445,1107.652,2506.935,1108.169,2504.45,1108.169z M2336.354,947.066
						c50.581,28.169,100.22,62.388,148.135,102.1c-5.854-88.579-21.885-171.607-35.249-228.711
						c-1.558-6.675-6.895-8.569-9.116-9.077c-2.222-0.498-7.808-1.094-12.061,4.204
						C2402.091,847.837,2366.183,895.625,2336.354,947.066z"/>
				</g>
				<g>
					<path style="fill:#000072;" d="M1943.053,2048.165c-216.572,0-403.735-46.279-541.245-133.828
						c-149.912-95.449-229.15-234.126-229.15-401.04c0-68.472,13.691-136.914,40.698-203.491
						c24.482-212.617,52.207-418.769,117.334-604.917c14.893-42.524,47.959-74.814,90.718-88.608
						c42.422-13.672,87.676-6.885,124.189,18.623c89.004,62.222,181.353,153.047,237.949,233.657
						c107.192-21.592,218.892-22.598,325.303-2.93c56.753-79.873,147.939-169.253,235.874-230.723
						c36.523-25.523,81.802-32.3,124.199-18.623c42.754,13.789,75.815,46.084,90.708,88.594
						c65.84,188.188,93.457,396.851,118.149,611.953c0.015,0.127,0.024,0.259,0.039,0.386
						c23.613,63.941,35.576,129.878,35.576,196.079c0,166.914-79.229,305.591-229.121,401.035
						C2346.774,2001.885,2159.625,2048.165,1943.053,2048.165z M1248.62,1332.632c-23.071,59.307-34.761,120.034-34.761,180.664
						c0,152.119,72.646,278.779,210.078,366.279c129.018,82.149,313.374,127.388,519.116,127.388
						c205.737,0,390.083-45.239,519.092-127.383c137.412-87.505,210.049-214.16,210.049-366.284
						c0-62.91-11.699-125.64-34.766-186.445c-1.265-3.34-1.611-6.826-1.143-10.166c-24.277-210.986-51.597-415.415-115.547-598.193
						c-10.586-30.229-34.087-53.193-64.463-62.993c-30.029-9.688-62.095-4.893-87.949,13.184
						c-88.281,61.709-179.8,152.49-233.149,231.274c-4.663,6.88-13.027,10.273-21.133,8.643
						c-109.966-22.192-226.504-20.982-337.388,3.525c-6.079,1.357-12.466-0.142-17.334-4.048c-4.048-3.247-6.694-7.881-7.471-12.939
						c-53.779-77.642-143.374-166.001-229.858-226.46c-25.85-18.061-57.896-22.871-87.939-13.179
						c-30.381,9.795-53.882,32.759-64.478,63.003c-63.892,182.627-91.221,386.86-115.479,597.647
						c-0.044,0.747-0.127,1.494-0.254,2.236c-0.122,1.055-0.244,2.095-0.361,3.145
						C1252.99,1325.796,1251.232,1329.61,1248.62,1332.632z"/>
				</g>
				<g>
					<path style="fill:#000072;" d="M1385.871,1108.169c-2.979,0-5.967-0.737-8.691-2.236c-6.377-3.511-10.015-10.518-9.224-17.754
						c0.952-8.706,23.521-213.94,38.018-275.938c4.233-18.101,18.12-31.904,36.245-36.021c18.091-4.111,36.548,2.324,48.159,16.792
						c29.502,36.65,71.528,92.876,104.102,152.515c4.634,8.486,1.748,19.116-6.538,24.092
						c-60.088,36.108-122.51,80.142-190.825,134.619C1393.849,1106.836,1389.875,1108.169,1385.871,1108.169z M1453.034,811.065
						c-1.167,0-2.158,0.161-2.832,0.313c-2.222,0.508-7.563,2.402-9.121,9.072c-10.088,43.14-24.863,163.94-32.432,228.96
						c51.069-39.253,99.136-72.739,145.767-101.572c-29.902-51.709-66.04-99.819-92.139-132.236
						C1459.313,811.905,1455.705,811.065,1453.034,811.065z"/>
				</g>
				<g style="opacity:0.2;">
					<path style="fill:#FFFFFF;" d="M2017.433,947.63c91.593,14.601,165.76,41.916,218.672,84.74
						c18.759,15.182,11.375,45.523-12.184,50.753c-105.884,23.506-187.695-1.784-236.825-93.319
						C1975.803,968.765,1993.854,943.871,2017.433,947.63z"/>
				</g>
				<g style="opacity:0.2;">
					<path style="fill:#FFFFFF;" d="M2351.526,1179.948c17.124-12.894,16.623-42.446-1.117-66.006
						c-17.74-23.56-46.003-32.207-63.127-19.313c-17.124,12.894-6.043,34.479,11.697,58.039
						C2316.719,1176.229,2334.403,1192.842,2351.526,1179.948z"/>
				</g>
				<g>
					<g style="opacity:0.3;">
						<path style="fill:#FFFFFF;" d="M1603.93,1638.752c-17.317,5.996-35.573,9.307-54.547,9.307
							c-22.597,0-44.568-3.624-65.285-10.381l-119.832-308.528c23.044-30.696,56.828-51.101,94.952-62.914L1603.93,1638.752z"/>
					</g>
					<g style="opacity:0.3;">
						<path style="fill:#FFFFFF;" d="M2380.687,1628.729c-27.206,12.395-57.186,19.33-88.375,19.33
							c-8.233,0-16.287-0.626-24.252-1.835l-130.705-336.584c25.371-25.416,59.915-42.689,99.651-50.832L2380.687,1628.729z"/>
					</g>
					<g style="opacity:0.3;">
						<path style="fill:#FFFFFF;" d="M2486.424,1527.736c-13.738,26.982-33.158,50.966-56.605,70.252l-133.837-344.639
							c30.428,0.313,61.079,4.654,89.225,13.737L2486.424,1527.736z"/>
					</g>
					<g style="opacity:0.3;">
						<path style="fill:#FFFFFF;" d="M1725.128,1527.736c-13.737,26.982-33.158,50.966-56.605,70.252l-133.837-344.639
							c30.428,0.313,61.079,4.654,89.224,13.737L1725.128,1527.736z"/>
					</g>
					<g>
						<g>
							<path style="fill:#EF4364;" d="M2673.286,1273.351c-15.796,1.7-44.971,2.058-78.307-11.142
								c-8.547-3.401-16.378-8.368-23.805-13.782c-186.728-137.551-414.31-82.379-574.95,30.517
								c-50.25-44.657-100.501-44.657-150.751,0c-160.641-112.896-388.222-168.069-574.949-30.517
								c-7.429,5.414-15.259,10.381-23.806,13.782c-33.291,13.2-62.466,12.842-78.262,11.142
								c-6.667-0.716-12.484,4.475-12.484,11.187v39.109c0,5.414,3.938,9.978,9.263,11.008
								c40.987,7.875,63.092,40.541,70.655,92.223c106.184,479.997,615.938,345.981,617.727-55.486
								c0.089-18.928,13.558-35.037,32.129-38.616c23.894-4.654,47.386-5.056,70.386-0.716
								c18.569,3.535,31.949,19.733,31.993,38.616c1.208,402.004,511.499,536.467,617.727,56.202
								c7.517-51.682,29.622-84.348,70.611-92.223c5.369-1.029,9.262-5.593,9.262-11.008v-39.109
								C2685.725,1277.826,2679.953,1272.635,2673.286,1273.351z M1549.384,1648.059c-111.643,0-207.624-89.001-216.036-197.691
								c-11.008-143.234,104.394-197.064,216.036-197.064c111.688,0,200.42,62.198,200.42,171.245
								C1749.804,1533.508,1661.072,1648.059,1549.384,1648.059z M2508.349,1450.369
								c-8.412,108.689-104.393,197.691-216.037,197.691c-111.643,0-200.42-114.551-200.42-223.509
								c0-109.048,88.778-171.245,200.42-171.245C2403.956,1253.305,2519.357,1307.135,2508.349,1450.369z"/>
						</g>
						<g>
							<path style="fill:#000072;" d="M1539.484,1735.928c-61.973,0-121.914-21.729-171.294-62.583
								c-64.331-53.223-110.923-138.262-134.741-245.928c-7.827-53.447-30.283-82.93-68.687-90.308
								c-6.543-1.265-11.289-6.929-11.289-13.462v-39.111c0-3.896,1.66-7.617,4.551-10.22c2.905-2.607,6.826-3.877,10.698-3.452
								c14.507,1.563,43.814,2.207,77.075-10.981c7.163-2.847,14.551-7.129,23.252-13.477
								c191.733-141.221,423.032-77.632,576.25,29.365c50.142-43.686,100.967-43.677,151.099,0
								c153.223-106.992,384.526-170.596,576.26-29.355c8.691,6.338,16.079,10.62,23.242,13.467
								c33.306,13.188,62.607,12.544,77.119,10.981h0.005c3.843-0.44,7.759,0.83,10.649,3.432c2.891,2.598,4.551,6.333,4.551,10.239
								v39.111c0,6.543-4.751,12.207-11.294,13.462c-38.413,7.383-60.854,36.86-68.604,90.127
								c-23.857,107.891-70.479,192.954-134.849,246.167c-56.929,47.065-127.905,68.721-199.814,60.967
								c-75.718-8.159-146.582-46.919-199.541-109.146c-57.598-67.676-88.198-155.698-88.496-254.541
								c-0.039-17.661-12.642-32.871-29.966-36.167c-22.163-4.184-45.537-3.95-69.439,0.713
								c-17.363,3.345-30.019,18.56-30.107,36.172c-0.439,98.716-31.123,186.592-88.735,254.131
								c-52.979,62.109-123.823,100.776-199.478,108.872C1558.405,1735.42,1548.917,1735.923,1539.484,1735.928z M1167.252,1275.787
								c-2.163,0-4.268,0.796-5.884,2.251c-1.865,1.675-2.896,3.984-2.896,6.499v39.111c0,4.146,3.042,7.739,7.236,8.55
								c40.181,7.724,64.624,39.453,72.656,94.316c53.867,243.496,205.273,316.191,329.004,302.92
								c140.278-15.015,282.788-142.822,283.745-358.052c0.098-20,14.463-37.266,34.155-41.065
								c24.536-4.775,48.54-5.019,71.323-0.713c19.673,3.745,33.984,21.016,34.033,41.065
								c0.645,215.518,143.145,343.599,283.574,358.73c123.765,13.32,275.288-59.272,329.209-303.066
								c7.949-54.678,32.378-86.411,72.578-94.136c4.194-0.801,7.236-4.399,7.236-8.55v-39.111c0-2.529-1.025-4.844-2.896-6.519
								c-1.865-1.68-4.282-2.446-6.777-2.182c-14.941,1.611-45.195,2.285-79.492-11.304c-7.568-3.008-15.308-7.485-24.36-14.082
								c-190.273-140.171-420.254-76.123-572.041,30.542l-1.616,1.138l-1.479-1.313c-49.604-44.082-97.832-44.072-147.427,0
								l-1.48,1.313l-1.616-1.138c-151.787-106.67-381.768-170.698-572.031-30.552c-9.063,6.606-16.802,11.084-24.365,14.092
								c-34.258,13.584-64.477,12.915-79.453,11.304C1167.877,1275.801,1167.565,1275.787,1167.252,1275.787z M2292.311,1650.562
								c-116.138,0-202.92-119.321-202.92-226.011c0-103.921,81.548-173.745,202.92-173.745c74.399,0,138.911,23.584,176.987,64.702
								c31.816,34.35,45.791,79.785,41.548,135.049l-0.005,0.005C2502.306,1560.84,2404.274,1650.562,2292.311,1650.562z
								 M2292.311,1255.806c-118.384,0-197.92,67.813-197.92,168.745c0,104.326,84.644,221.011,197.92,221.011
								c109.409,0,205.21-87.651,213.55-195.391l-0.005,0.005c4.136-53.818-9.395-97.983-40.225-131.274
								C2428.493,1278.804,2365.324,1255.806,2292.311,1255.806z M1549.386,1650.562c-111.963,0-209.995-89.722-218.53-200
								c-4.248-55.269,9.727-100.703,41.543-135.054c38.076-41.118,102.588-64.702,176.987-64.702
								c121.372,0,202.92,69.824,202.92,173.745C1752.306,1531.241,1665.524,1650.562,1549.386,1650.562z M1549.386,1255.806
								c-73.013,0-136.182,22.998-173.32,63.096c-30.83,33.291-44.36,77.456-40.229,131.274
								c8.34,107.734,104.141,195.386,213.55,195.386c113.276,0,197.92-116.685,197.92-221.011
								C1747.306,1323.619,1667.77,1255.806,1549.386,1255.806z"/>
						</g>
					</g>
					<g style="opacity:0.55;">
						<path style="fill:#FFFFFF;" d="M2673.286,1273.351c-15.796,1.7-44.971,2.058-78.307-11.142
							c-8.547-3.401-16.378-8.368-23.805-13.782c-186.728-137.551-414.31-82.379-574.95,30.517
							c-50.25-44.657-100.501-44.657-150.751,0c-160.641-112.896-388.222-168.069-574.949-30.517
							c-7.429,5.414-15.259,10.381-23.806,13.782c-33.291,13.2-62.466,12.842-78.262,11.142
							c-6.667-0.716-12.484,4.475-12.484,11.187v38.035c0-6.712,5.817-11.903,12.484-11.187c15.796,1.7,44.971,2.058,78.262-11.142
							c8.546-3.401,16.377-8.368,23.806-13.782c186.728-137.551,414.308-82.379,574.949,30.517
							c50.25-44.657,100.501-44.657,150.751,0c160.64-112.896,388.222-168.069,574.95-30.517
							c7.427,5.414,15.258,10.381,23.805,13.782c33.336,13.2,62.511,12.842,78.307,11.142c6.667-0.716,12.439,4.475,12.439,11.187
							v-38.035C2685.725,1277.826,2679.953,1272.635,2673.286,1273.351z M2508.26,1451.264
							c-8.86,108.287-104.617,196.796-215.947,196.796c-105.065,0-189.905-101.485-199.481-204.268
							c-0.626,6.085-0.939,12.35-0.939,18.794c0,108.958,88.778,223.51,200.42,223.51c111.644,0,207.625-89.001,216.037-197.691
							C2509.378,1475.293,2509.289,1462.898,2508.26,1451.264z M1748.865,1443.791c-9.576,102.783-94.37,204.268-199.481,204.268
							c-111.329,0-207.087-88.509-215.947-196.796c-1.03,11.634-1.119,24.029-0.09,37.14
							c8.412,108.69,104.394,197.691,216.036,197.691c111.688,0,200.42-114.552,200.42-223.51
							C1749.804,1456.141,1749.491,1449.876,1748.865,1443.791z"/>
					</g>
					<g>
						<path style="fill:#000072;" d="M1539.45,1750.596c-65.376,0.005-128.574-22.896-180.615-65.947
							c-66.87-55.322-115.176-143.174-139.702-254.058c-0.088-0.405-0.161-0.816-0.225-1.226
							c-9.023-61.699-36.792-73.975-56.895-77.837c-13.452-2.603-23.203-14.326-23.203-27.876v-39.111
							c0-8.057,3.433-15.767,9.419-21.147c5.996-5.381,14.053-7.983,22.041-7.119c13.169,1.406,39.771,1.992,70.142-10.034
							c5.967-2.373,12.329-6.089,20.01-11.69c194.092-142.993,426.729-83.159,584.102,22.876
							c50.166-38.887,102.529-38.887,152.695,0c157.368-106.04,389.995-165.859,584.165-22.827
							c7.617,5.552,13.984,9.267,19.966,11.646c30.352,12.021,56.953,11.431,70.112,10.034c0.005-0.005,0.005-0.005,0.01-0.005
							c7.998-0.854,16.05,1.743,22.041,7.119c5.986,5.381,9.419,13.091,9.419,21.147v39.111c0,13.55-9.751,25.273-23.179,27.871
							c-20.127,3.867-47.896,16.143-56.919,77.842c-0.063,0.41-0.137,0.82-0.225,1.226
							c-24.536,110.933-72.881,198.813-139.8,254.131c-60.01,49.609-134.858,72.422-210.742,64.248
							c-79.463-8.565-153.735-49.131-209.136-114.229c-59.873-70.352-91.685-161.641-91.987-264.004
							c-0.029-10.649-7.607-19.814-18.008-21.787c-20.313-3.843-41.821-3.618-63.921,0.674
							c-10.513,2.041-18.174,11.226-18.218,21.831c-0.454,102.232-32.353,193.379-92.251,263.594
							c-55.425,64.98-129.683,105.444-209.092,113.945C1559.43,1750.064,1549.406,1750.596,1539.45,1750.596z M1923.415,1311.866
							c12.202,0,24.199,1.108,35.913,3.325c26.563,5.034,45.894,28.35,45.981,55.444c0.61,206.885,136.514,329.736,270.439,344.17
							c117.407,12.7,261.235-57.197,313.174-291.04c8.823-59.258,35.605-94.546,79.644-104.976v-27.783
							c-17.686,1.152-47.124,0.161-79.893-12.822c-8.755-3.481-17.515-8.521-27.598-15.864
							c-184.063-135.601-407.349-73.042-554.951,30.688c-6.514,4.58-15.337,4.072-21.289-1.216
							c-43.643-38.779-84.287-38.779-127.93,0c-5.942,5.293-14.761,5.801-21.289,1.216
							c-147.607-103.735-370.884-166.289-554.883-30.742c-10.142,7.392-18.906,12.437-27.646,15.913
							c-32.788,12.983-62.227,13.975-79.912,12.827v27.778c44.033,10.42,70.82,45.713,79.644,104.981
							c51.914,233.716,195.62,303.608,312.983,291.06c133.794-14.316,269.717-136.909,270.63-343.521
							c0.122-26.948,19.477-50.254,46.03-55.41C1896.291,1313.208,1909.977,1311.866,1923.415,1311.866z M2292.335,1665.245
							c-124.541,0-217.603-127.075-217.603-240.688c0-112.705,87.451-188.428,217.603-188.428
							c78.477,0,146.909,25.298,187.759,69.409c34.702,37.475,49.98,86.646,45.405,146.152c0,0,0,0.005,0,0.01
							C2516.388,1569.449,2411.789,1665.245,2292.335,1665.245z M2292.335,1270.494c-91.206,0-183.237,47.637-183.237,154.063
							c0,97.397,78.364,206.323,183.237,206.323c101.914,0,191.143-81.567,198.906-181.836
							c3.809-49.565-8.423-89.995-36.357-120.156C2420.514,1291.778,2361.271,1270.494,2292.335,1270.494z M2508.371,1450.371h0.049
							H2508.371z M1549.406,1665.245c-119.453,0-224.053-95.796-233.164-213.545c-4.575-59.517,10.703-108.687,45.405-146.162
							c40.85-44.111,109.282-69.409,187.759-69.409c130.151,0,217.603,75.723,217.603,188.428
							C1767.008,1538.169,1673.947,1665.245,1549.406,1665.245z M1549.406,1270.494c-68.935,0-128.179,21.284-162.549,58.394
							c-27.935,30.166-40.166,70.596-36.357,120.166c7.764,100.259,96.992,181.826,198.906,181.826
							c104.873,0,183.237-108.926,183.237-206.323C1732.643,1318.13,1640.612,1270.494,1549.406,1270.494z"/>
					</g>
				</g>
			</g>
			<g>
				<path style="fill:#008CFF;" d="M2772.243,3130h-1497.6c-47.339,0-85.714-38.375-85.714-85.714v-208.371
					c0-47.339,38.376-85.714,85.714-85.714h1497.6c21.444,0,38.829,17.384,38.829,38.829v302.143
					C2811.072,3112.616,2793.687,3130,2772.243,3130z"/>
			</g>
			<g style="opacity:0.7;">
				<path style="fill:#FFFFFF;" d="M2772.243,2750.2h-1497.6c-47.339,0-85.714,38.375-85.714,85.714v208.372
					c0,14.517,3.639,28.173,10.008,40.156c0-0.052-0.008-0.103-0.008-0.156v-208.372c0-47.339,38.376-85.714,85.714-85.714h111.421
					c9.361,16.856,64.391,29.8,130.9,29.8c66.509,0,121.539-12.944,130.9-29.8h1124.378c11.456,0,21.722,4.991,28.829,12.883
					v-14.055C2811.072,2767.584,2793.688,2750.2,2772.243,2750.2z"/>
			</g>
			<g>
				<rect x="1298.227" y="2749.643" style="fill:#FFFFFF;" width="61.059" height="380.357"/>
			</g>
			<g>
				<rect x="1418.131" y="2749.643" style="fill:#FFFFFF;" width="61.059" height="380.357"/>
			</g>
			<g style="opacity:0.3;">
				<path style="fill:#000072;" d="M2772.243,3030h-1497.6c-47.339,0-85.714-38.375-85.714-85.714v100
					c0,47.339,38.376,85.714,85.714,85.714h1497.6c21.445,0,38.829-17.384,38.829-38.829v-100
					C2811.072,3012.616,2793.688,3030,2772.243,3030z"/>
			</g>
			<g>
				<path style="fill:#000072;" d="M2772.243,3150H1274.645c-58.291,0-105.718-47.422-105.718-105.713v-208.374
					c0-58.291,47.427-105.713,105.718-105.713h1497.598c32.437,0,58.828,26.392,58.828,58.828v302.144
					C2831.071,3123.609,2804.679,3150,2772.243,3150z M1274.645,2770.201c-36.235,0-65.718,29.478-65.718,65.713v208.374
					c0,36.235,29.482,65.713,65.718,65.713h1497.598c10.381,0,18.828-8.447,18.828-18.828v-302.144
					c0-10.381-8.447-18.828-18.828-18.828H1274.645z"/>
			</g>
			<g>
				<path style="fill:#FFFFFF;" d="M2811.072,3045.893h-827.411c-36.54,0-66.161-29.621-66.161-66.161v-76.607
					c0-36.54,29.621-66.161,66.161-66.161h827.411V3045.893z"/>
			</g>
			<g style="opacity:0.3;">
				<path style="fill:#000072;" d="M2043.661,3000.893c-36.54,0-66.161-29.621-66.161-66.16v-76.607
					c0-7.359,1.251-14.413,3.469-21.025c-35.281,1.423-63.469,30.394-63.469,66.025v76.607c0,36.54,29.621,66.16,66.161,66.16
					h827.411v-45H2043.661z"/>
			</g>
			<g>
				<path style="fill:#000072;" d="M2811.071,3064.229h-827.412c-46.592,0-84.492-37.905-84.492-84.497v-76.606
					c0-46.592,37.9-84.497,84.492-84.497h827.412c10.127,0,18.335,8.208,18.335,18.335v208.931
					C2829.406,3056.021,2821.198,3064.229,2811.071,3064.229z M1983.659,2855.298c-26.367,0-47.822,21.455-47.822,47.827v76.606
					c0,26.372,21.455,47.827,47.822,47.827h809.077v-172.261H1983.659z"/>
			</g>
			<g style="opacity:0.4;">
				<g>
					<path style="fill:#000072;" d="M2610.322,2898.796c16.729-2.097,33.459-3.083,50.188-3.799l50.188-1.653
						c16.729-0.62,33.457-0.889,50.186-1.309c16.729-0.415,33.459-0.608,50.188-0.74v15c-16.729-0.129-33.459-0.322-50.188-0.74
						s-33.457-0.686-50.186-1.306l-50.188-1.653C2643.782,2901.882,2627.051,2900.896,2610.322,2898.796z"/>
				</g>
				<g>
					<path style="fill:#000072;" d="M1919.075,2891.296c94.468-0.608,188.938-0.11,283.408,0.447l141.704,1.458
						c47.236,0.615,94.47,0.039,141.707,5.596c-47.236,5.559-94.47,4.983-141.707,5.598l-141.704,1.458
						c-94.47,0.557-188.94,1.055-283.408,0.444V2891.296z"/>
				</g>
				<g>
					<path style="fill:#000072;" d="M2320.625,2943.928c40.872-5.53,81.741-5.342,122.612-5.835l122.61-1.428l122.612-0.613
						c40.872-0.066,81.741-0.007,122.612,0.376v15c-40.872,0.383-81.741,0.442-122.612,0.376l-122.612-0.613l-122.61-1.428
						C2402.366,2949.272,2361.497,2949.46,2320.625,2943.928z"/>
				</g>
				<g>
					<path style="fill:#000072;" d="M1919.075,2936.428c25.627-0.212,51.255-0.181,76.882-0.002l76.882,0.845l76.885,1.499
						c25.627,0.396,51.255,0.923,76.882,5.159c-25.627,4.236-51.255,4.763-76.882,5.159l-76.885,1.501l-76.882,0.842
						c-25.627,0.178-51.255,0.21-76.882-0.002V2936.428z"/>
				</g>
				<g>
					<path style="fill:#000072;" d="M2565.847,2989.06c20.437-3.008,40.872-4.297,61.306-5.083l61.306-1.543
						c20.435-0.61,40.872-0.676,61.306-0.928c10.217-0.154,20.435-0.198,30.652-0.134c10.22,0.017,20.437,0.007,30.654,0.188v15
						c-10.217,0.181-20.435,0.171-30.654,0.188c-10.217,0.063-20.435,0.02-30.652-0.134c-20.435-0.251-40.872-0.317-61.306-0.928
						l-61.306-1.543C2606.719,2993.357,2586.284,2992.068,2565.847,2989.06z"/>
				</g>
				<g>
					<path style="fill:#000072;" d="M1919.075,2981.56l126.301,0.686l126.304,1.211l126.304,1.638
						c42.1,0.513,84.202,1.001,126.301,3.965c-42.1,2.964-84.202,3.452-126.301,3.965l-126.304,1.638l-126.304,1.211l-126.301,0.686
						V2981.56z"/>
				</g>
			</g>
			<g>
				<path style="fill:#FF0068;" d="M1227.757,3509.8h1497.6c47.339,0,85.714-38.375,85.714-85.714v-208.371
					c0-47.339-38.375-85.714-85.714-85.714h-1497.6c-21.444,0-38.829,17.384-38.829,38.829v302.143
					C1188.928,3492.416,1206.313,3509.8,1227.757,3509.8z"/>
			</g>
			<g>
				
					<rect x="2640.714" y="3129.443" transform="matrix(-1 -1.224647e-16 1.224647e-16 -1 5342.4878 6639.2432)" style="fill:#FFCE00;" width="61.059" height="380.357"/>
			</g>
			<g>
				
					<rect x="2520.81" y="3129.443" transform="matrix(-1 -1.224647e-16 1.224647e-16 -1 5102.6782 6639.2432)" style="fill:#FFCE00;" width="61.059" height="380.357"/>
			</g>
			<g style="opacity:0.3;">
				<path style="fill:#000072;" d="M1227.757,3409.8h1497.6c47.338,0,85.714-38.375,85.714-85.714v100
					c0,47.339-38.376,85.714-85.714,85.714h-1497.6c-21.444,0-38.828-17.384-38.828-38.829v-100
					C1188.928,3392.416,1206.313,3409.8,1227.757,3409.8z"/>
			</g>
			<g style="opacity:0.7;">
				<path style="fill:#FFFFFF;" d="M1227.757,3130h1497.6c47.338,0,85.714,38.375,85.714,85.714v208.372
					c0,14.517-3.639,28.173-10.008,40.156c0-0.052,0.008-0.104,0.008-0.156v-208.372c0-47.339-38.376-85.714-85.714-85.714h-111.421
					c-9.361,16.856-64.391,29.8-130.9,29.8c-66.509,0-121.539-12.944-130.9-29.8H1217.757c-11.456,0-21.721,4.991-28.828,12.883
					v-14.055C1188.928,3147.384,1206.313,3130,1227.757,3130z"/>
			</g>
			<g>
				<path style="fill:#000072;" d="M2725.358,3529.8H1227.755c-32.436,0-58.828-26.392-58.828-58.828v-302.144
					c0-32.437,26.392-58.828,58.828-58.828h1497.603c58.291,0,105.713,47.422,105.713,105.713v208.374
					C2831.071,3482.378,2783.649,3529.8,2725.358,3529.8z M1227.755,3150c-10.381,0-18.828,8.447-18.828,18.828v302.144
					c0,10.381,8.447,18.828,18.828,18.828h1497.603c36.235,0,65.713-29.478,65.713-65.713v-208.374
					c0-36.235-29.478-65.713-65.713-65.713H1227.755z"/>
			</g>
			<g>
				<path style="fill:#FFFFFF;" d="M1188.928,3425.693h827.411c36.54,0,66.161-29.621,66.161-66.161v-76.607
					c0-36.54-29.621-66.161-66.161-66.161h-827.411V3425.693z"/>
			</g>
			<g style="opacity:0.3;">
				<path style="fill:#000072;" d="M1956.339,3380.693c36.54,0,66.161-29.621,66.161-66.16v-76.607
					c0-7.359-1.251-14.413-3.469-21.025c35.281,1.423,63.469,30.394,63.469,66.025v76.607c0,36.54-29.621,66.16-66.161,66.16
					h-827.411v-45H1956.339z"/>
			</g>
			<g>
				<path style="fill:#000072;" d="M2016.339,3444.029h-827.412c-10.127,0-18.335-8.208-18.335-18.335v-208.931
					c0-10.127,8.208-18.335,18.335-18.335h827.412c46.592,0,84.497,37.905,84.497,84.497v76.606
					C2100.836,3406.124,2062.931,3444.029,2016.339,3444.029z M1207.262,3407.359h809.077c26.372,0,47.827-21.455,47.827-47.827
					v-76.606c0-26.372-21.455-47.827-47.827-47.827h-809.077V3407.359z"/>
			</g>
			<g style="opacity:0.4;">
				<g>
					<path style="fill:#000072;" d="M1389.678,3278.596c-16.729,2.1-33.459,3.086-50.188,3.801l-50.188,1.653
						c-16.729,0.62-33.457,0.889-50.186,1.306s-33.459,0.61-50.188,0.74v-15c16.729,0.132,33.459,0.325,50.188,0.742
						s33.457,0.686,50.186,1.306l50.188,1.653C1356.218,3275.513,1372.949,3276.499,1389.678,3278.596z"/>
				</g>
				<g>
					<path style="fill:#000072;" d="M2080.925,3286.096c-94.468,0.61-188.938,0.112-283.408-0.444l-141.704-1.458
						c-47.236-0.615-94.47-0.039-141.707-5.598c47.236-5.557,94.47-4.98,141.707-5.596l141.704-1.458
						c94.47-0.557,188.94-1.055,283.408-0.447V3286.096z"/>
				</g>
				<g>
					<path style="fill:#000072;" d="M1679.375,3323.728c-40.872,5.532-81.741,5.344-122.612,5.835l-122.61,1.428l-122.612,0.615
						c-40.872,0.063-81.741,0.005-122.612-0.378v-15c40.872-0.383,81.741-0.439,122.612-0.376l122.612,0.613l122.61,1.428
						C1597.634,3318.386,1638.503,3318.198,1679.375,3323.728z"/>
				</g>
				<g>
					<path style="fill:#000072;" d="M2080.925,3331.228c-25.627,0.212-51.255,0.183-76.882,0.002l-76.882-0.842l-76.885-1.499
						c-25.627-0.398-51.255-0.925-76.882-5.161c25.627-4.233,51.255-4.763,76.882-5.159l76.885-1.499l76.882-0.845
						c25.627-0.178,51.255-0.21,76.882,0.002V3331.228z"/>
				</g>
				<g>
					<path style="fill:#000072;" d="M1434.153,3368.86c-20.437,3.008-40.872,4.297-61.306,5.083l-61.306,1.543
						c-20.435,0.61-40.872,0.679-61.306,0.928c-10.217,0.154-20.435,0.198-30.652,0.134c-10.22-0.017-20.437-0.007-30.654-0.188v-15
						c10.217-0.181,20.435-0.171,30.654-0.188c10.217-0.063,20.435-0.017,30.652,0.134c20.435,0.251,40.872,0.317,61.306,0.928
						l61.306,1.543C1393.281,3364.565,1413.716,3365.852,1434.153,3368.86z"/>
				</g>
				<g>
					<path style="fill:#000072;" d="M2080.925,3376.36l-126.301-0.684l-126.304-1.213l-126.304-1.638
						c-42.1-0.513-84.202-1.001-126.301-3.965c42.1-2.964,84.202-3.45,126.301-3.965l126.304-1.638l126.304-1.211l126.301-0.686
						V3376.36z"/>
				</g>
			</g>
			<g>
				<path style="fill:#000072;" d="M940,3502.3c22.004-6.091,44.011-9.333,66.016-11.797c22.004-2.5,44.011-3.342,66.016-4.07
					c44.011-1.611,88.02-0.759,132.031,0.12c44.011,0.935,88.02,0.725,132.031,0.747h132.031h528.125h528.125h264.063l66.016-0.024
					c22.004,0.02,44.011-1.016,66.016-1.489c22.004-0.4,44.011,0.122,66.016,2.151c22.004,2.229,44.011,5.938,66.016,14.363
					c4.143,1.587,6.213,6.23,4.629,10.371c-0.845,2.207-2.588,3.838-4.629,4.629c-22.004,8.428-44.011,12.136-66.016,14.363
					c-22.004,2.029-44.011,2.551-66.016,2.151c-22.004-0.474-44.011-1.506-66.016-1.489l-66.016-0.024h-264.063H1996.25h-528.125
					h-132.031c-44.011,0.022-88.02-0.188-132.031,0.75c-44.011,0.876-88.02,1.731-132.031,0.12
					c-22.004-0.73-44.011-1.57-66.016-4.072c-22.004-2.461-44.011-5.706-66.016-11.797c-4.143-1.147-6.57-5.435-5.425-9.575
					C935.332,3504.998,937.461,3503.01,940,3502.3z"/>
			</g>
		</g>
	</g>
</g>
</svg>
